<svg width="600" height="607" viewBox="0 0 600 607" fill="none" xmlns="http://www.w3.org/2000/svg">
<circle opacity="0.1" cx="300" cy="300" r="295" stroke="#009F64" stroke-width="10"/>
<path d="M537.851 127.191C540.532 125.243 541.131 121.487 539.13 118.846C509.38 79.5749 470.395 48.209 425.598 27.5571C378.983 6.06732 327.634 -3.10249 276.462 0.924792C225.291 4.95207 176.008 22.0417 133.329 50.5591C90.6498 79.0764 56.0014 118.068 32.6981 163.803C9.39479 209.538 -1.7839 260.488 0.231286 311.778C2.24648 363.068 17.3881 412.984 44.2079 456.75C71.0277 500.515 108.628 536.668 153.414 561.749C196.452 585.852 244.743 598.955 294 599.94C297.313 600.006 300 597.314 300 594C300 590.686 297.313 588.007 294 587.938C246.796 586.954 200.524 574.378 159.277 551.279C116.283 527.201 80.1866 492.495 54.4396 450.48C28.6926 408.464 14.1566 360.545 12.222 311.307C10.2875 262.068 21.019 213.157 43.3902 169.251C65.7613 125.345 99.0238 87.9134 139.996 60.5367C180.968 33.1601 228.279 16.754 277.404 12.8878C326.529 9.02161 375.824 17.8246 420.574 38.4548C463.507 58.247 500.878 88.29 529.42 125.901C531.423 128.54 535.17 129.139 537.851 127.191Z" fill="#76A5FE"/>
<circle opacity="0.1" cx="300" cy="300" r="270" stroke="#009F64" stroke-width="10"/>
<path d="M518.03 141.592C520.488 139.807 521.037 136.363 519.202 133.942C491.932 97.9436 456.196 69.1915 415.132 50.2607C372.401 30.5617 325.331 22.1561 278.424 25.8477C231.516 29.5394 186.341 45.2049 147.218 71.3458C108.096 97.4867 76.3346 133.229 54.9732 175.153C33.6119 217.077 23.3648 263.78 25.212 310.796C27.0593 357.812 40.9391 403.568 65.5239 443.687C90.1087 483.806 124.576 516.946 165.629 539.936C205.081 562.031 249.348 574.042 294.5 574.945C297.537 575.006 300 572.538 300 569.5C300 566.462 297.537 564.006 294.5 563.943C251.23 563.041 208.814 551.514 171.004 530.339C131.593 508.268 98.5044 476.454 74.903 437.94C51.3016 399.426 37.9769 355.5 36.2035 310.365C34.4302 265.229 44.2674 220.393 64.7743 180.146C85.2812 139.899 115.772 105.587 153.33 80.492C190.887 55.3967 234.256 40.3578 279.287 36.8138C324.318 33.2698 369.505 41.3392 410.526 60.2502C449.881 78.3931 484.139 105.933 510.301 140.409C512.138 142.829 515.573 143.377 518.03 141.592Z" fill="#00C0CA"/>
<circle opacity="0.1" cx="300" cy="300" r="245" stroke="#009F64" stroke-width="10"/>
<path d="M497.198 156.727C499.991 154.699 500.616 150.784 498.518 148.043C473.823 115.783 441.617 89.9994 404.665 72.9642C365.819 55.0561 323.028 47.4146 280.385 50.7707C237.742 54.1267 196.674 68.3681 161.108 92.1326C125.541 115.897 96.6678 148.39 77.2484 186.502C57.829 224.615 48.5134 267.073 50.1927 309.815C51.8721 352.557 64.4901 394.153 86.8399 430.625C109.19 467.096 140.524 497.223 177.845 518.124C213.346 538.006 253.136 548.906 293.75 549.922C297.201 550.008 300 547.202 300 543.75C300 540.298 297.201 537.509 293.75 537.418C255.275 536.405 217.588 526.055 183.952 507.218C148.498 487.362 118.73 458.741 97.4979 424.093C76.2656 389.445 64.2785 349.929 62.6831 309.324C61.0877 268.719 69.9375 228.384 88.386 192.177C106.834 155.97 134.264 125.102 168.052 102.526C201.84 79.9497 240.855 66.4204 281.366 63.2321C321.877 60.0439 362.528 67.3033 399.432 84.316C434.442 100.456 464.967 124.861 488.402 155.393C490.503 158.131 494.405 158.756 497.198 156.727Z" fill="#FF6200"/>
<circle opacity="0.1" cx="300" cy="300" r="220" stroke="#009F64" stroke-width="10"/>
<path d="M477.485 171.05C479.995 169.226 480.556 165.709 478.671 163.246C456.446 134.208 427.458 111.001 394.199 95.6678C359.237 79.5505 320.726 72.6731 282.347 75.6936C243.968 78.7141 207.006 91.5313 174.997 112.919C142.987 134.307 117.001 163.551 99.5236 197.852C82.0461 232.154 73.6621 270.366 75.1735 308.833C76.6849 347.301 88.0411 384.738 108.156 417.562C128.271 450.387 156.471 477.501 190.06 496.312C222.014 514.207 257.828 524.017 294.384 524.93C297.485 525.007 300 522.485 300 519.384C300 516.282 297.485 513.775 294.384 513.693C259.75 512.783 225.826 503.467 195.549 486.511C163.637 468.639 136.844 442.879 117.734 411.693C98.623 380.507 87.8337 344.94 86.3978 308.392C84.9619 271.845 92.9273 235.541 109.532 202.952C126.137 170.363 150.826 142.579 181.237 122.259C211.649 101.939 246.765 89.7616 283.228 86.892C319.691 84.0223 356.28 90.5563 389.496 105.869C421.01 120.397 448.487 142.366 469.58 169.851C471.469 172.311 474.976 172.873 477.485 171.05Z" fill="#00B04C"/>
<circle opacity="0.1" cx="300" cy="300" r="195" stroke="#009F64" stroke-width="10"/>
<path d="M456.949 185.97C459.63 184.022 460.232 180.264 458.204 177.642C438.53 152.204 412.991 131.86 383.732 118.371C352.655 104.045 318.423 97.9317 284.308 100.617C250.194 103.301 217.339 114.694 188.886 133.706C160.433 152.718 137.334 178.712 121.799 209.202C106.263 239.692 98.8107 273.658 100.154 307.852C101.498 342.045 111.592 375.322 129.472 404.5C147.352 433.677 172.419 457.779 202.276 474.499C230.386 490.242 261.856 498.945 294.001 499.91C297.313 500.009 300 497.314 300 494C300 490.686 297.313 488.01 294.001 487.904C263.91 486.944 234.458 478.768 208.139 464.029C180.074 448.312 156.511 425.656 139.704 398.23C122.897 370.803 113.408 339.523 112.145 307.381C110.882 275.239 117.887 243.311 132.491 214.65C147.094 185.989 168.807 161.555 195.553 143.684C222.299 125.813 253.182 115.103 285.25 112.58C317.317 110.056 349.496 115.802 378.708 129.269C406.102 141.898 430.028 160.92 448.492 184.699C450.524 187.317 454.268 187.917 456.949 185.97Z" fill="#FFBF00"/>
<circle opacity="0.1" cx="300" cy="300" r="170" stroke="#009F64" stroke-width="10"/>
<path d="M437.331 200.224C439.676 198.519 440.203 195.231 438.429 192.937C421.214 170.678 398.867 152.877 373.266 141.075C346.074 128.539 316.12 123.19 286.27 125.539C256.42 127.889 227.671 137.858 202.775 154.493C177.879 171.128 157.667 193.873 144.074 220.552C130.48 247.231 123.959 276.951 125.135 306.87C126.31 336.79 135.143 365.907 150.788 391.437C166.433 416.967 188.367 438.056 214.491 452.687C239.088 466.461 266.624 474.077 294.751 474.921C297.649 475.008 300 472.65 300 469.75C300 466.85 297.649 464.509 294.751 464.416C268.421 463.576 242.651 456.422 219.622 443.526C195.065 429.773 174.447 409.949 159.741 385.951C145.034 361.953 136.732 334.582 135.627 306.458C134.522 278.334 140.651 250.397 153.429 225.319C166.207 200.24 185.206 178.86 208.609 163.223C232.011 147.586 259.034 138.215 287.094 136.007C315.153 133.799 343.309 138.827 368.87 150.61C392.839 161.661 413.774 178.305 429.93 199.112C431.708 201.402 434.985 201.928 437.331 200.224Z" fill="#FC260A"/>
<circle opacity="0.1" cx="300" cy="300" r="145" stroke="#009F64" stroke-width="10"/>
<path d="M417.108 214.916C419.452 213.213 419.979 209.925 418.195 207.642C403.502 188.838 384.516 173.79 362.799 163.779C339.492 153.034 313.817 148.449 288.231 150.462C262.645 152.476 238.004 161.021 216.665 175.28C195.325 189.538 178.001 209.034 166.349 231.901C154.697 254.769 149.108 280.244 150.116 305.889C151.123 331.534 158.694 356.492 172.104 378.375C185.514 400.258 204.314 418.334 226.707 430.874C247.572 442.559 270.905 449.074 294.754 449.908C297.65 450.01 300 447.651 300 444.753C300 441.856 297.65 439.517 294.754 439.408C272.701 438.578 251.132 432.527 231.834 421.719C211.008 410.056 193.523 393.244 181.051 372.892C168.579 352.54 161.538 329.328 160.601 305.477C159.664 281.626 164.862 257.933 175.699 236.665C186.535 215.397 202.647 197.266 222.494 184.004C242.341 170.743 265.259 162.796 289.054 160.923C312.85 159.051 336.729 163.315 358.406 173.308C378.493 182.568 396.066 196.461 409.7 213.814C411.49 216.093 414.764 216.619 417.108 214.916Z" fill="#76A5FE"/>
<circle cx="314" cy="445" r="4" stroke="#76A5FE" stroke-width="2"/>
<circle cx="314" cy="470" r="4" stroke="#FC260A" stroke-width="2"/>
<circle cx="314" cy="495" r="4" stroke="#FFBF00" stroke-width="2"/>
<circle cx="314" cy="520" r="4" stroke="#00B04C" stroke-width="2"/>
<circle cx="314" cy="545" r="4" stroke="#FF6200" stroke-width="2"/>
<circle cx="314" cy="570" r="4" stroke="#00C0CA" stroke-width="2"/>
<circle cx="314" cy="595" r="4" stroke="#76A5FE" stroke-width="2"/>
<path opacity="0.8" d="M336.145 442.605C336.145 443.475 335.845 444.2 335.245 444.78C334.655 445.35 333.75 445.635 332.53 445.635H330.52V450H329.155V439.545H332.53C333.71 439.545 334.605 439.83 335.215 440.4C335.835 440.97 336.145 441.705 336.145 442.605ZM332.53 444.51C333.29 444.51 333.85 444.345 334.21 444.015C334.57 443.685 334.75 443.215 334.75 442.605C334.75 441.315 334.01 440.67 332.53 440.67H330.52V444.51H332.53ZM339.207 443.115C339.447 442.645 339.787 442.28 340.227 442.02C340.677 441.76 341.222 441.63 341.862 441.63V443.04H341.502C339.972 443.04 339.207 443.87 339.207 445.53V450H337.842V441.78H339.207V443.115ZM344.142 440.445C343.882 440.445 343.662 440.355 343.482 440.175C343.302 439.995 343.212 439.775 343.212 439.515C343.212 439.255 343.302 439.035 343.482 438.855C343.662 438.675 343.882 438.585 344.142 438.585C344.392 438.585 344.602 438.675 344.772 438.855C344.952 439.035 345.042 439.255 345.042 439.515C345.042 439.775 344.952 439.995 344.772 440.175C344.602 440.355 344.392 440.445 344.142 440.445ZM344.802 441.78V450H343.437V441.78H344.802ZM350.189 448.74L352.739 441.78H354.194L350.969 450H349.379L346.154 441.78H347.624L350.189 448.74ZM355.027 445.86C355.027 445.02 355.197 444.285 355.537 443.655C355.877 443.015 356.342 442.52 356.932 442.17C357.532 441.82 358.197 441.645 358.927 441.645C359.647 441.645 360.272 441.8 360.802 442.11C361.332 442.42 361.727 442.81 361.987 443.28V441.78H363.367V450H361.987V448.47C361.717 448.95 361.312 449.35 360.772 449.67C360.242 449.98 359.622 450.135 358.912 450.135C358.182 450.135 357.522 449.955 356.932 449.595C356.342 449.235 355.877 448.73 355.537 448.08C355.197 447.43 355.027 446.69 355.027 445.86ZM361.987 445.875C361.987 445.255 361.862 444.715 361.612 444.255C361.362 443.795 361.022 443.445 360.592 443.205C360.172 442.955 359.707 442.83 359.197 442.83C358.687 442.83 358.222 442.95 357.802 443.19C357.382 443.43 357.047 443.78 356.797 444.24C356.547 444.7 356.422 445.24 356.422 445.86C356.422 446.49 356.547 447.04 356.797 447.51C357.047 447.97 357.382 448.325 357.802 448.575C358.222 448.815 358.687 448.935 359.197 448.935C359.707 448.935 360.172 448.815 360.592 448.575C361.022 448.325 361.362 447.97 361.612 447.51C361.862 447.04 361.987 446.495 361.987 445.875ZM367.339 442.905V447.75C367.339 448.15 367.424 448.435 367.594 448.605C367.764 448.765 368.059 448.845 368.479 448.845H369.484V450H368.254C367.494 450 366.924 449.825 366.544 449.475C366.164 449.125 365.974 448.55 365.974 447.75V442.905H364.909V441.78H365.974V439.71H367.339V441.78H369.484V442.905H367.339ZM378.637 445.575C378.637 445.835 378.622 446.11 378.592 446.4H372.022C372.072 447.21 372.347 447.845 372.847 448.305C373.357 448.755 373.972 448.98 374.692 448.98C375.282 448.98 375.772 448.845 376.162 448.575C376.562 448.295 376.842 447.925 377.002 447.465H378.472C378.252 448.255 377.812 448.9 377.152 449.4C376.492 449.89 375.672 450.135 374.692 450.135C373.912 450.135 373.212 449.96 372.592 449.61C371.982 449.26 371.502 448.765 371.152 448.125C370.802 447.475 370.627 446.725 370.627 445.875C370.627 445.025 370.797 444.28 371.137 443.64C371.477 443 371.952 442.51 372.562 442.17C373.182 441.82 373.892 441.645 374.692 441.645C375.472 441.645 376.162 441.815 376.762 442.155C377.362 442.495 377.822 442.965 378.142 443.565C378.472 444.155 378.637 444.825 378.637 445.575ZM377.227 445.29C377.227 444.77 377.112 444.325 376.882 443.955C376.652 443.575 376.337 443.29 375.937 443.1C375.547 442.9 375.112 442.8 374.632 442.8C373.942 442.8 373.352 443.02 372.862 443.46C372.382 443.9 372.107 444.51 372.037 445.29H377.227ZM387.348 450.135C386.718 450.135 386.153 450.03 385.653 449.82C385.153 449.6 384.758 449.3 384.468 448.92C384.178 448.53 384.018 448.085 383.988 447.585H385.398C385.438 447.995 385.628 448.33 385.968 448.59C386.318 448.85 386.773 448.98 387.333 448.98C387.853 448.98 388.263 448.865 388.563 448.635C388.863 448.405 389.013 448.115 389.013 447.765C389.013 447.405 388.853 447.14 388.533 446.97C388.213 446.79 387.718 446.615 387.048 446.445C386.438 446.285 385.938 446.125 385.548 445.965C385.168 445.795 384.838 445.55 384.558 445.23C384.288 444.9 384.153 444.47 384.153 443.94C384.153 443.52 384.278 443.135 384.528 442.785C384.778 442.435 385.133 442.16 385.593 441.96C386.053 441.75 386.578 441.645 387.168 441.645C388.078 441.645 388.813 441.875 389.373 442.335C389.933 442.795 390.233 443.425 390.273 444.225H388.908C388.878 443.795 388.703 443.45 388.383 443.19C388.073 442.93 387.653 442.8 387.123 442.8C386.633 442.8 386.243 442.905 385.953 443.115C385.663 443.325 385.518 443.6 385.518 443.94C385.518 444.21 385.603 444.435 385.773 444.615C385.953 444.785 386.173 444.925 386.433 445.035C386.703 445.135 387.073 445.25 387.543 445.38C388.133 445.54 388.613 445.7 388.983 445.86C389.353 446.01 389.668 446.24 389.928 446.55C390.198 446.86 390.338 447.265 390.348 447.765C390.348 448.215 390.223 448.62 389.973 448.98C389.723 449.34 389.368 449.625 388.908 449.835C388.458 450.035 387.938 450.135 387.348 450.135ZM391.765 445.86C391.765 445.02 391.935 444.285 392.275 443.655C392.615 443.015 393.08 442.52 393.67 442.17C394.27 441.82 394.935 441.645 395.665 441.645C396.385 441.645 397.01 441.8 397.54 442.11C398.07 442.42 398.465 442.81 398.725 443.28V441.78H400.105V450H398.725V448.47C398.455 448.95 398.05 449.35 397.51 449.67C396.98 449.98 396.36 450.135 395.65 450.135C394.92 450.135 394.26 449.955 393.67 449.595C393.08 449.235 392.615 448.73 392.275 448.08C391.935 447.43 391.765 446.69 391.765 445.86ZM398.725 445.875C398.725 445.255 398.6 444.715 398.35 444.255C398.1 443.795 397.76 443.445 397.33 443.205C396.91 442.955 396.445 442.83 395.935 442.83C395.425 442.83 394.96 442.95 394.54 443.19C394.12 443.43 393.785 443.78 393.535 444.24C393.285 444.7 393.16 445.24 393.16 445.86C393.16 446.49 393.285 447.04 393.535 447.51C393.785 447.97 394.12 448.325 394.54 448.575C394.96 448.815 395.425 448.935 395.935 448.935C396.445 448.935 396.91 448.815 397.33 448.575C397.76 448.325 398.1 447.97 398.35 447.51C398.6 447.04 398.725 446.495 398.725 445.875ZM403.777 438.9V450H402.412V438.9H403.777ZM413.603 445.575C413.603 445.835 413.588 446.11 413.558 446.4H406.988C407.038 447.21 407.313 447.845 407.813 448.305C408.323 448.755 408.938 448.98 409.658 448.98C410.248 448.98 410.738 448.845 411.128 448.575C411.528 448.295 411.808 447.925 411.968 447.465H413.438C413.218 448.255 412.778 448.9 412.118 449.4C411.458 449.89 410.638 450.135 409.658 450.135C408.878 450.135 408.178 449.96 407.558 449.61C406.948 449.26 406.468 448.765 406.118 448.125C405.768 447.475 405.593 446.725 405.593 445.875C405.593 445.025 405.763 444.28 406.103 443.64C406.443 443 406.918 442.51 407.528 442.17C408.148 441.82 408.858 441.645 409.658 441.645C410.438 441.645 411.128 441.815 411.728 442.155C412.328 442.495 412.788 442.965 413.108 443.565C413.438 444.155 413.603 444.825 413.603 445.575ZM412.193 445.29C412.193 444.77 412.078 444.325 411.848 443.955C411.618 443.575 411.303 443.29 410.903 443.1C410.513 442.9 410.078 442.8 409.598 442.8C408.908 442.8 408.318 443.02 407.828 443.46C407.348 443.9 407.073 444.51 407.003 445.29H412.193ZM418.849 447.585V446.55L424.114 439.26H425.749V446.4H427.249V447.585H425.749V450H424.399V447.585H418.849ZM424.459 440.685L420.424 446.4H424.459V440.685ZM428.313 441.6C428.313 440.92 428.518 440.38 428.928 439.98C429.338 439.57 429.863 439.365 430.503 439.365C431.143 439.365 431.668 439.57 432.078 439.98C432.488 440.38 432.693 440.92 432.693 441.6C432.693 442.29 432.488 442.84 432.078 443.25C431.668 443.65 431.143 443.85 430.503 443.85C429.863 443.85 429.338 443.65 428.928 443.25C428.518 442.84 428.313 442.29 428.313 441.6ZM437.073 439.53L430.998 450H429.648L435.723 439.53H437.073ZM430.503 440.205C430.163 440.205 429.893 440.325 429.693 440.565C429.503 440.795 429.408 441.14 429.408 441.6C429.408 442.06 429.503 442.41 429.693 442.65C429.893 442.89 430.163 443.01 430.503 443.01C430.843 443.01 431.113 442.89 431.313 442.65C431.513 442.4 431.613 442.05 431.613 441.6C431.613 441.14 431.513 440.795 431.313 440.565C431.113 440.325 430.843 440.205 430.503 440.205ZM434.058 447.93C434.058 447.24 434.263 446.695 434.673 446.295C435.083 445.885 435.608 445.68 436.248 445.68C436.888 445.68 437.408 445.885 437.808 446.295C438.218 446.695 438.423 447.24 438.423 447.93C438.423 448.61 438.218 449.155 437.808 449.565C437.408 449.975 436.888 450.18 436.248 450.18C435.608 450.18 435.083 449.98 434.673 449.58C434.263 449.17 434.058 448.62 434.058 447.93ZM436.233 446.535C435.893 446.535 435.623 446.655 435.423 446.895C435.223 447.125 435.123 447.47 435.123 447.93C435.123 448.38 435.223 448.725 435.423 448.965C435.623 449.195 435.893 449.31 436.233 449.31C436.573 449.31 436.843 449.195 437.043 448.965C437.243 448.725 437.343 448.38 437.343 447.93C437.343 447.47 437.243 447.125 437.043 446.895C436.843 446.655 436.573 446.535 436.233 446.535ZM335.335 472.675H330.775L329.935 475H328.495L332.275 464.605H333.85L337.615 475H336.175L335.335 472.675ZM334.945 471.565L333.055 466.285L331.165 471.565H334.945ZM338.752 470.86C338.752 470.02 338.922 469.285 339.262 468.655C339.602 468.015 340.067 467.52 340.657 467.17C341.257 466.82 341.927 466.645 342.667 466.645C343.307 466.645 343.902 466.795 344.452 467.095C345.002 467.385 345.422 467.77 345.712 468.25V463.9H347.092V475H345.712V473.455C345.442 473.945 345.042 474.35 344.512 474.67C343.982 474.98 343.362 475.135 342.652 475.135C341.922 475.135 341.257 474.955 340.657 474.595C340.067 474.235 339.602 473.73 339.262 473.08C338.922 472.43 338.752 471.69 338.752 470.86ZM345.712 470.875C345.712 470.255 345.587 469.715 345.337 469.255C345.087 468.795 344.747 468.445 344.317 468.205C343.897 467.955 343.432 467.83 342.922 467.83C342.412 467.83 341.947 467.95 341.527 468.19C341.107 468.43 340.772 468.78 340.522 469.24C340.272 469.7 340.147 470.24 340.147 470.86C340.147 471.49 340.272 472.04 340.522 472.51C340.772 472.97 341.107 473.325 341.527 473.575C341.947 473.815 342.412 473.935 342.922 473.935C343.432 473.935 343.897 473.815 344.317 473.575C344.747 473.325 345.087 472.97 345.337 472.51C345.587 472.04 345.712 471.495 345.712 470.875ZM352.459 473.74L355.009 466.78H356.464L353.239 475H351.649L348.424 466.78H349.894L352.459 473.74ZM358.512 465.445C358.252 465.445 358.032 465.355 357.852 465.175C357.672 464.995 357.582 464.775 357.582 464.515C357.582 464.255 357.672 464.035 357.852 463.855C358.032 463.675 358.252 463.585 358.512 463.585C358.762 463.585 358.972 463.675 359.142 463.855C359.322 464.035 359.412 464.255 359.412 464.515C359.412 464.775 359.322 464.995 359.142 465.175C358.972 465.355 358.762 465.445 358.512 465.445ZM359.172 466.78V475H357.807V466.78H359.172ZM364.409 475.135C363.779 475.135 363.214 475.03 362.714 474.82C362.214 474.6 361.819 474.3 361.529 473.92C361.239 473.53 361.079 473.085 361.049 472.585H362.459C362.499 472.995 362.689 473.33 363.029 473.59C363.379 473.85 363.834 473.98 364.394 473.98C364.914 473.98 365.324 473.865 365.624 473.635C365.924 473.405 366.074 473.115 366.074 472.765C366.074 472.405 365.914 472.14 365.594 471.97C365.274 471.79 364.779 471.615 364.109 471.445C363.499 471.285 362.999 471.125 362.609 470.965C362.229 470.795 361.899 470.55 361.619 470.23C361.349 469.9 361.214 469.47 361.214 468.94C361.214 468.52 361.339 468.135 361.589 467.785C361.839 467.435 362.194 467.16 362.654 466.96C363.114 466.75 363.639 466.645 364.229 466.645C365.139 466.645 365.874 466.875 366.434 467.335C366.994 467.795 367.294 468.425 367.334 469.225H365.969C365.939 468.795 365.764 468.45 365.444 468.19C365.134 467.93 364.714 467.8 364.184 467.8C363.694 467.8 363.304 467.905 363.014 468.115C362.724 468.325 362.579 468.6 362.579 468.94C362.579 469.21 362.664 469.435 362.834 469.615C363.014 469.785 363.234 469.925 363.494 470.035C363.764 470.135 364.134 470.25 364.604 470.38C365.194 470.54 365.674 470.7 366.044 470.86C366.414 471.01 366.729 471.24 366.989 471.55C367.259 471.86 367.399 472.265 367.409 472.765C367.409 473.215 367.284 473.62 367.034 473.98C366.784 474.34 366.429 474.625 365.969 474.835C365.519 475.035 364.999 475.135 364.409 475.135ZM372.921 475.135C372.151 475.135 371.451 474.96 370.821 474.61C370.201 474.26 369.711 473.765 369.351 473.125C369.001 472.475 368.826 471.725 368.826 470.875C368.826 470.035 369.006 469.295 369.366 468.655C369.736 468.005 370.236 467.51 370.866 467.17C371.496 466.82 372.201 466.645 372.981 466.645C373.761 466.645 374.466 466.82 375.096 467.17C375.726 467.51 376.221 468 376.581 468.64C376.951 469.28 377.136 470.025 377.136 470.875C377.136 471.725 376.946 472.475 376.566 473.125C376.196 473.765 375.691 474.26 375.051 474.61C374.411 474.96 373.701 475.135 372.921 475.135ZM372.921 473.935C373.411 473.935 373.871 473.82 374.301 473.59C374.731 473.36 375.076 473.015 375.336 472.555C375.606 472.095 375.741 471.535 375.741 470.875C375.741 470.215 375.611 469.655 375.351 469.195C375.091 468.735 374.751 468.395 374.331 468.175C373.911 467.945 373.456 467.83 372.966 467.83C372.466 467.83 372.006 467.945 371.586 468.175C371.176 468.395 370.846 468.735 370.596 469.195C370.346 469.655 370.221 470.215 370.221 470.875C370.221 471.545 370.341 472.11 370.581 472.57C370.831 473.03 371.161 473.375 371.571 473.605C371.981 473.825 372.431 473.935 372.921 473.935ZM380.295 468.115C380.535 467.645 380.875 467.28 381.315 467.02C381.765 466.76 382.31 466.63 382.95 466.63V468.04H382.59C381.06 468.04 380.295 468.87 380.295 470.53V475H378.93V466.78H380.295V468.115ZM394.975 465.22L390.805 475H389.425L393.655 465.355H387.865V464.185H394.975V465.22ZM396.189 466.6C396.189 465.92 396.394 465.38 396.804 464.98C397.214 464.57 397.739 464.365 398.379 464.365C399.019 464.365 399.544 464.57 399.954 464.98C400.364 465.38 400.569 465.92 400.569 466.6C400.569 467.29 400.364 467.84 399.954 468.25C399.544 468.65 399.019 468.85 398.379 468.85C397.739 468.85 397.214 468.65 396.804 468.25C396.394 467.84 396.189 467.29 396.189 466.6ZM404.949 464.53L398.874 475H397.524L403.599 464.53H404.949ZM398.379 465.205C398.039 465.205 397.769 465.325 397.569 465.565C397.379 465.795 397.284 466.14 397.284 466.6C397.284 467.06 397.379 467.41 397.569 467.65C397.769 467.89 398.039 468.01 398.379 468.01C398.719 468.01 398.989 467.89 399.189 467.65C399.389 467.4 399.489 467.05 399.489 466.6C399.489 466.14 399.389 465.795 399.189 465.565C398.989 465.325 398.719 465.205 398.379 465.205ZM401.934 472.93C401.934 472.24 402.139 471.695 402.549 471.295C402.959 470.885 403.484 470.68 404.124 470.68C404.764 470.68 405.284 470.885 405.684 471.295C406.094 471.695 406.299 472.24 406.299 472.93C406.299 473.61 406.094 474.155 405.684 474.565C405.284 474.975 404.764 475.18 404.124 475.18C403.484 475.18 402.959 474.98 402.549 474.58C402.139 474.17 401.934 473.62 401.934 472.93ZM404.109 471.535C403.769 471.535 403.499 471.655 403.299 471.895C403.099 472.125 402.999 472.47 402.999 472.93C402.999 473.38 403.099 473.725 403.299 473.965C403.499 474.195 403.769 474.31 404.109 474.31C404.449 474.31 404.719 474.195 404.919 473.965C405.119 473.725 405.219 473.38 405.219 472.93C405.219 472.47 405.119 472.125 404.919 471.895C404.719 471.655 404.449 471.535 404.109 471.535ZM330.52 490.655V494.15H334.33V495.275H330.52V498.875H334.78V500H329.155V489.53H334.78V490.655H330.52ZM336.335 495.875C336.335 495.025 336.505 494.285 336.845 493.655C337.185 493.015 337.655 492.52 338.255 492.17C338.865 491.82 339.56 491.645 340.34 491.645C341.35 491.645 342.18 491.89 342.83 492.38C343.49 492.87 343.925 493.55 344.135 494.42H342.665C342.525 493.92 342.25 493.525 341.84 493.235C341.44 492.945 340.94 492.8 340.34 492.8C339.56 492.8 338.93 493.07 338.45 493.61C337.97 494.14 337.73 494.895 337.73 495.875C337.73 496.865 337.97 497.63 338.45 498.17C338.93 498.71 339.56 498.98 340.34 498.98C340.94 498.98 341.44 498.84 341.84 498.56C342.24 498.28 342.515 497.88 342.665 497.36H344.135C343.915 498.2 343.475 498.875 342.815 499.385C342.155 499.885 341.33 500.135 340.34 500.135C339.56 500.135 338.865 499.96 338.255 499.61C337.655 499.26 337.185 498.765 336.845 498.125C336.505 497.485 336.335 496.735 336.335 495.875ZM349.542 500.135C348.772 500.135 348.072 499.96 347.442 499.61C346.822 499.26 346.332 498.765 345.972 498.125C345.622 497.475 345.447 496.725 345.447 495.875C345.447 495.035 345.627 494.295 345.987 493.655C346.357 493.005 346.857 492.51 347.487 492.17C348.117 491.82 348.822 491.645 349.602 491.645C350.382 491.645 351.087 491.82 351.717 492.17C352.347 492.51 352.842 493 353.202 493.64C353.572 494.28 353.757 495.025 353.757 495.875C353.757 496.725 353.567 497.475 353.187 498.125C352.817 498.765 352.312 499.26 351.672 499.61C351.032 499.96 350.322 500.135 349.542 500.135ZM349.542 498.935C350.032 498.935 350.492 498.82 350.922 498.59C351.352 498.36 351.697 498.015 351.957 497.555C352.227 497.095 352.362 496.535 352.362 495.875C352.362 495.215 352.232 494.655 351.972 494.195C351.712 493.735 351.372 493.395 350.952 493.175C350.532 492.945 350.077 492.83 349.587 492.83C349.087 492.83 348.627 492.945 348.207 493.175C347.797 493.395 347.467 493.735 347.217 494.195C346.967 494.655 346.842 495.215 346.842 495.875C346.842 496.545 346.962 497.11 347.202 497.57C347.452 498.03 347.782 498.375 348.192 498.605C348.602 498.825 349.052 498.935 349.542 498.935ZM358.461 500.135C357.831 500.135 357.266 500.03 356.766 499.82C356.266 499.6 355.871 499.3 355.581 498.92C355.291 498.53 355.131 498.085 355.101 497.585H356.511C356.551 497.995 356.741 498.33 357.081 498.59C357.431 498.85 357.886 498.98 358.446 498.98C358.966 498.98 359.376 498.865 359.676 498.635C359.976 498.405 360.126 498.115 360.126 497.765C360.126 497.405 359.966 497.14 359.646 496.97C359.326 496.79 358.831 496.615 358.161 496.445C357.551 496.285 357.051 496.125 356.661 495.965C356.281 495.795 355.951 495.55 355.671 495.23C355.401 494.9 355.266 494.47 355.266 493.94C355.266 493.52 355.391 493.135 355.641 492.785C355.891 492.435 356.246 492.16 356.706 491.96C357.166 491.75 357.691 491.645 358.281 491.645C359.191 491.645 359.926 491.875 360.486 492.335C361.046 492.795 361.346 493.425 361.386 494.225H360.021C359.991 493.795 359.816 493.45 359.496 493.19C359.186 492.93 358.766 492.8 358.236 492.8C357.746 492.8 357.356 492.905 357.066 493.115C356.776 493.325 356.631 493.6 356.631 493.94C356.631 494.21 356.716 494.435 356.886 494.615C357.066 494.785 357.286 494.925 357.546 495.035C357.816 495.135 358.186 495.25 358.656 495.38C359.246 495.54 359.726 495.7 360.096 495.86C360.466 496.01 360.781 496.24 361.041 496.55C361.311 496.86 361.451 497.265 361.461 497.765C361.461 498.215 361.336 498.62 361.086 498.98C360.836 499.34 360.481 499.625 360.021 499.835C359.571 500.035 359.051 500.135 358.461 500.135ZM370.468 491.78L365.518 503.87H364.108L365.728 499.91L362.413 491.78H363.928L366.508 498.44L369.058 491.78H370.468ZM374.751 500.135C374.121 500.135 373.556 500.03 373.056 499.82C372.556 499.6 372.161 499.3 371.871 498.92C371.581 498.53 371.421 498.085 371.391 497.585H372.801C372.841 497.995 373.031 498.33 373.371 498.59C373.721 498.85 374.176 498.98 374.736 498.98C375.256 498.98 375.666 498.865 375.966 498.635C376.266 498.405 376.416 498.115 376.416 497.765C376.416 497.405 376.256 497.14 375.936 496.97C375.616 496.79 375.121 496.615 374.451 496.445C373.841 496.285 373.341 496.125 372.951 495.965C372.571 495.795 372.241 495.55 371.961 495.23C371.691 494.9 371.556 494.47 371.556 493.94C371.556 493.52 371.681 493.135 371.931 492.785C372.181 492.435 372.536 492.16 372.996 491.96C373.456 491.75 373.981 491.645 374.571 491.645C375.481 491.645 376.216 491.875 376.776 492.335C377.336 492.795 377.636 493.425 377.676 494.225H376.311C376.281 493.795 376.106 493.45 375.786 493.19C375.476 492.93 375.056 492.8 374.526 492.8C374.036 492.8 373.646 492.905 373.356 493.115C373.066 493.325 372.921 493.6 372.921 493.94C372.921 494.21 373.006 494.435 373.176 494.615C373.356 494.785 373.576 494.925 373.836 495.035C374.106 495.135 374.476 495.25 374.946 495.38C375.536 495.54 376.016 495.7 376.386 495.86C376.756 496.01 377.071 496.24 377.331 496.55C377.601 496.86 377.741 497.265 377.751 497.765C377.751 498.215 377.626 498.62 377.376 498.98C377.126 499.34 376.771 499.625 376.311 499.835C375.861 500.035 375.341 500.135 374.751 500.135ZM381.342 492.905V497.75C381.342 498.15 381.427 498.435 381.597 498.605C381.767 498.765 382.062 498.845 382.482 498.845H383.487V500H382.257C381.497 500 380.927 499.825 380.547 499.475C380.167 499.125 379.977 498.55 379.977 497.75V492.905H378.912V491.78H379.977V489.71H381.342V491.78H383.487V492.905H381.342ZM392.641 495.575C392.641 495.835 392.626 496.11 392.596 496.4H386.026C386.076 497.21 386.351 497.845 386.851 498.305C387.361 498.755 387.976 498.98 388.696 498.98C389.286 498.98 389.776 498.845 390.166 498.575C390.566 498.295 390.846 497.925 391.006 497.465H392.476C392.256 498.255 391.816 498.9 391.156 499.4C390.496 499.89 389.676 500.135 388.696 500.135C387.916 500.135 387.216 499.96 386.596 499.61C385.986 499.26 385.506 498.765 385.156 498.125C384.806 497.475 384.631 496.725 384.631 495.875C384.631 495.025 384.801 494.28 385.141 493.64C385.481 493 385.956 492.51 386.566 492.17C387.186 491.82 387.896 491.645 388.696 491.645C389.476 491.645 390.166 491.815 390.766 492.155C391.366 492.495 391.826 492.965 392.146 493.565C392.476 494.155 392.641 494.825 392.641 495.575ZM391.231 495.29C391.231 494.77 391.116 494.325 390.886 493.955C390.656 493.575 390.341 493.29 389.941 493.1C389.551 492.9 389.116 492.8 388.636 492.8C387.946 492.8 387.356 493.02 386.866 493.46C386.386 493.9 386.111 494.51 386.041 495.29H391.231ZM404.328 491.63C404.968 491.63 405.538 491.765 406.038 492.035C406.538 492.295 406.933 492.69 407.223 493.22C407.513 493.75 407.658 494.395 407.658 495.155V500H406.308V495.35C406.308 494.53 406.103 493.905 405.693 493.475C405.293 493.035 404.748 492.815 404.058 492.815C403.348 492.815 402.783 493.045 402.363 493.505C401.943 493.955 401.733 494.61 401.733 495.47V500H400.383V495.35C400.383 494.53 400.178 493.905 399.768 493.475C399.368 493.035 398.823 492.815 398.133 492.815C397.423 492.815 396.858 493.045 396.438 493.505C396.018 493.955 395.808 494.61 395.808 495.47V500H394.443V491.78H395.808V492.965C396.078 492.535 396.438 492.205 396.888 491.975C397.348 491.745 397.853 491.63 398.403 491.63C399.093 491.63 399.703 491.785 400.233 492.095C400.763 492.405 401.158 492.86 401.418 493.46C401.648 492.88 402.028 492.43 402.558 492.11C403.088 491.79 403.678 491.63 404.328 491.63ZM417.241 492.905H415.516V500H414.151V492.905H413.086V491.78H414.151V491.195C414.151 490.275 414.386 489.605 414.856 489.185C415.336 488.755 416.101 488.54 417.151 488.54V489.68C416.551 489.68 416.126 489.8 415.876 490.04C415.636 490.27 415.516 490.655 415.516 491.195V491.78H417.241V492.905ZM426.123 491.78V500H424.758V498.785C424.498 499.205 424.133 499.535 423.663 499.775C423.203 500.005 422.693 500.12 422.133 500.12C421.493 500.12 420.918 499.99 420.408 499.73C419.898 499.46 419.493 499.06 419.193 498.53C418.903 498 418.758 497.355 418.758 496.595V491.78H420.108V496.415C420.108 497.225 420.313 497.85 420.723 498.29C421.133 498.72 421.693 498.935 422.403 498.935C423.133 498.935 423.708 498.71 424.128 498.26C424.548 497.81 424.758 497.155 424.758 496.295V491.78H426.123ZM432.432 491.63C433.432 491.63 434.242 491.935 434.862 492.545C435.482 493.145 435.792 494.015 435.792 495.155V500H434.442V495.35C434.442 494.53 434.237 493.905 433.827 493.475C433.417 493.035 432.857 492.815 432.147 492.815C431.427 492.815 430.852 493.04 430.422 493.49C430.002 493.94 429.792 494.595 429.792 495.455V500H428.427V491.78H429.792V492.95C430.062 492.53 430.427 492.205 430.887 491.975C431.357 491.745 431.872 491.63 432.432 491.63ZM437.512 495.86C437.512 495.02 437.682 494.285 438.022 493.655C438.362 493.015 438.827 492.52 439.417 492.17C440.017 491.82 440.687 491.645 441.427 491.645C442.067 491.645 442.662 491.795 443.212 492.095C443.762 492.385 444.182 492.77 444.472 493.25V488.9H445.852V500H444.472V498.455C444.202 498.945 443.802 499.35 443.272 499.67C442.742 499.98 442.122 500.135 441.412 500.135C440.682 500.135 440.017 499.955 439.417 499.595C438.827 499.235 438.362 498.73 438.022 498.08C437.682 497.43 437.512 496.69 437.512 495.86ZM444.472 495.875C444.472 495.255 444.347 494.715 444.097 494.255C443.847 493.795 443.507 493.445 443.077 493.205C442.657 492.955 442.192 492.83 441.682 492.83C441.172 492.83 440.707 492.95 440.287 493.19C439.867 493.43 439.532 493.78 439.282 494.24C439.032 494.7 438.907 495.24 438.907 495.86C438.907 496.49 439.032 497.04 439.282 497.51C439.532 497.97 439.867 498.325 440.287 498.575C440.707 498.815 441.172 498.935 441.682 498.935C442.192 498.935 442.657 498.815 443.077 498.575C443.507 498.325 443.847 497.97 444.097 497.51C444.347 497.04 444.472 496.495 444.472 495.875ZM453.913 494.36C453.353 494.14 452.923 493.82 452.623 493.4C452.323 492.98 452.173 492.47 452.173 491.87C452.173 491.33 452.308 490.845 452.578 490.415C452.848 489.975 453.248 489.63 453.778 489.38C454.318 489.12 454.968 488.99 455.728 488.99C456.488 488.99 457.133 489.12 457.663 489.38C458.203 489.63 458.608 489.975 458.878 490.415C459.158 490.845 459.298 491.33 459.298 491.87C459.298 492.45 459.143 492.96 458.833 493.4C458.523 493.83 458.098 494.15 457.558 494.36C458.178 494.55 458.668 494.885 459.028 495.365C459.398 495.835 459.583 496.405 459.583 497.075C459.583 497.725 459.423 498.295 459.103 498.785C458.783 499.265 458.328 499.64 457.738 499.91C457.158 500.17 456.488 500.3 455.728 500.3C454.968 500.3 454.298 500.17 453.718 499.91C453.148 499.64 452.703 499.265 452.383 498.785C452.063 498.295 451.903 497.725 451.903 497.075C451.903 496.405 452.083 495.83 452.443 495.35C452.803 494.87 453.293 494.54 453.913 494.36ZM457.978 492.035C457.978 491.425 457.778 490.955 457.378 490.625C456.978 490.295 456.428 490.13 455.728 490.13C455.038 490.13 454.493 490.295 454.093 490.625C453.693 490.955 453.493 491.43 453.493 492.05C453.493 492.61 453.698 493.06 454.108 493.4C454.528 493.74 455.068 493.91 455.728 493.91C456.398 493.91 456.938 493.74 457.348 493.4C457.768 493.05 457.978 492.595 457.978 492.035ZM455.728 494.96C454.988 494.96 454.383 495.135 453.913 495.485C453.443 495.825 453.208 496.34 453.208 497.03C453.208 497.67 453.433 498.185 453.883 498.575C454.343 498.965 454.958 499.16 455.728 499.16C456.498 499.16 457.108 498.965 457.558 498.575C458.008 498.185 458.233 497.67 458.233 497.03C458.233 496.36 458.003 495.85 457.543 495.5C457.083 495.14 456.478 494.96 455.728 494.96ZM461.096 491.6C461.096 490.92 461.301 490.38 461.711 489.98C462.121 489.57 462.646 489.365 463.286 489.365C463.926 489.365 464.451 489.57 464.861 489.98C465.271 490.38 465.476 490.92 465.476 491.6C465.476 492.29 465.271 492.84 464.861 493.25C464.451 493.65 463.926 493.85 463.286 493.85C462.646 493.85 462.121 493.65 461.711 493.25C461.301 492.84 461.096 492.29 461.096 491.6ZM469.856 489.53L463.781 500H462.431L468.506 489.53H469.856ZM463.286 490.205C462.946 490.205 462.676 490.325 462.476 490.565C462.286 490.795 462.191 491.14 462.191 491.6C462.191 492.06 462.286 492.41 462.476 492.65C462.676 492.89 462.946 493.01 463.286 493.01C463.626 493.01 463.896 492.89 464.096 492.65C464.296 492.4 464.396 492.05 464.396 491.6C464.396 491.14 464.296 490.795 464.096 490.565C463.896 490.325 463.626 490.205 463.286 490.205ZM466.841 497.93C466.841 497.24 467.046 496.695 467.456 496.295C467.866 495.885 468.391 495.68 469.031 495.68C469.671 495.68 470.191 495.885 470.591 496.295C471.001 496.695 471.206 497.24 471.206 497.93C471.206 498.61 471.001 499.155 470.591 499.565C470.191 499.975 469.671 500.18 469.031 500.18C468.391 500.18 467.866 499.98 467.456 499.58C467.046 499.17 466.841 498.62 466.841 497.93ZM469.016 496.535C468.676 496.535 468.406 496.655 468.206 496.895C468.006 497.125 467.906 497.47 467.906 497.93C467.906 498.38 468.006 498.725 468.206 498.965C468.406 499.195 468.676 499.31 469.016 499.31C469.356 499.31 469.626 499.195 469.826 498.965C470.026 498.725 470.126 498.38 470.126 497.93C470.126 497.47 470.026 497.125 469.826 496.895C469.626 496.655 469.356 496.535 469.016 496.535ZM336.145 517.605C336.145 518.475 335.845 519.2 335.245 519.78C334.655 520.35 333.75 520.635 332.53 520.635H330.52V525H329.155V514.545H332.53C333.71 514.545 334.605 514.83 335.215 515.4C335.835 515.97 336.145 516.705 336.145 517.605ZM332.53 519.51C333.29 519.51 333.85 519.345 334.21 519.015C334.57 518.685 334.75 518.215 334.75 517.605C334.75 516.315 334.01 515.67 332.53 515.67H330.52V519.51H332.53ZM345.132 516.78V525H343.767V523.785C343.507 524.205 343.142 524.535 342.672 524.775C342.212 525.005 341.702 525.12 341.142 525.12C340.502 525.12 339.927 524.99 339.417 524.73C338.907 524.46 338.502 524.06 338.202 523.53C337.912 523 337.767 522.355 337.767 521.595V516.78H339.117V521.415C339.117 522.225 339.322 522.85 339.732 523.29C340.142 523.72 340.702 523.935 341.412 523.935C342.142 523.935 342.717 523.71 343.137 523.26C343.557 522.81 343.767 522.155 343.767 521.295V516.78H345.132ZM348.801 518.31C349.081 517.82 349.491 517.42 350.031 517.11C350.571 516.8 351.186 516.645 351.876 516.645C352.616 516.645 353.281 516.82 353.871 517.17C354.461 517.52 354.926 518.015 355.266 518.655C355.606 519.285 355.776 520.02 355.776 520.86C355.776 521.69 355.606 522.43 355.266 523.08C354.926 523.73 354.456 524.235 353.856 524.595C353.266 524.955 352.606 525.135 351.876 525.135C351.166 525.135 350.541 524.98 350.001 524.67C349.471 524.36 349.071 523.965 348.801 523.485V525H347.436V513.9H348.801V518.31ZM354.381 520.86C354.381 520.24 354.256 519.7 354.006 519.24C353.756 518.78 353.416 518.43 352.986 518.19C352.566 517.95 352.101 517.83 351.591 517.83C351.091 517.83 350.626 517.955 350.196 518.205C349.776 518.445 349.436 518.8 349.176 519.27C348.926 519.73 348.801 520.265 348.801 520.875C348.801 521.495 348.926 522.04 349.176 522.51C349.436 522.97 349.776 523.325 350.196 523.575C350.626 523.815 351.091 523.935 351.591 523.935C352.101 523.935 352.566 523.815 352.986 523.575C353.416 523.325 353.756 522.97 354.006 522.51C354.256 522.04 354.381 521.49 354.381 520.86ZM358.938 513.9V525H357.573V513.9H358.938ZM361.969 515.445C361.709 515.445 361.489 515.355 361.309 515.175C361.129 514.995 361.039 514.775 361.039 514.515C361.039 514.255 361.129 514.035 361.309 513.855C361.489 513.675 361.709 513.585 361.969 513.585C362.219 513.585 362.429 513.675 362.599 513.855C362.779 514.035 362.869 514.255 362.869 514.515C362.869 514.775 362.779 514.995 362.599 515.175C362.429 515.355 362.219 515.445 361.969 515.445ZM362.629 516.78V525H361.264V516.78H362.629ZM364.446 520.875C364.446 520.025 364.616 519.285 364.956 518.655C365.296 518.015 365.766 517.52 366.366 517.17C366.976 516.82 367.671 516.645 368.451 516.645C369.461 516.645 370.291 516.89 370.941 517.38C371.601 517.87 372.036 518.55 372.246 519.42H370.776C370.636 518.92 370.361 518.525 369.951 518.235C369.551 517.945 369.051 517.8 368.451 517.8C367.671 517.8 367.041 518.07 366.561 518.61C366.081 519.14 365.841 519.895 365.841 520.875C365.841 521.865 366.081 522.63 366.561 523.17C367.041 523.71 367.671 523.98 368.451 523.98C369.051 523.98 369.551 523.84 369.951 523.56C370.351 523.28 370.626 522.88 370.776 522.36H372.246C372.026 523.2 371.586 523.875 370.926 524.385C370.266 524.885 369.441 525.135 368.451 525.135C367.671 525.135 366.976 524.96 366.366 524.61C365.766 524.26 365.296 523.765 364.956 523.125C364.616 522.485 364.446 521.735 364.446 520.875ZM380.976 525.135C380.346 525.135 379.781 525.03 379.281 524.82C378.781 524.6 378.386 524.3 378.096 523.92C377.806 523.53 377.646 523.085 377.616 522.585H379.026C379.066 522.995 379.256 523.33 379.596 523.59C379.946 523.85 380.401 523.98 380.961 523.98C381.481 523.98 381.891 523.865 382.191 523.635C382.491 523.405 382.641 523.115 382.641 522.765C382.641 522.405 382.481 522.14 382.161 521.97C381.841 521.79 381.346 521.615 380.676 521.445C380.066 521.285 379.566 521.125 379.176 520.965C378.796 520.795 378.466 520.55 378.186 520.23C377.916 519.9 377.781 519.47 377.781 518.94C377.781 518.52 377.906 518.135 378.156 517.785C378.406 517.435 378.761 517.16 379.221 516.96C379.681 516.75 380.206 516.645 380.796 516.645C381.706 516.645 382.441 516.875 383.001 517.335C383.561 517.795 383.861 518.425 383.901 519.225H382.536C382.506 518.795 382.331 518.45 382.011 518.19C381.701 517.93 381.281 517.8 380.751 517.8C380.261 517.8 379.871 517.905 379.581 518.115C379.291 518.325 379.146 518.6 379.146 518.94C379.146 519.21 379.231 519.435 379.401 519.615C379.581 519.785 379.801 519.925 380.061 520.035C380.331 520.135 380.701 520.25 381.171 520.38C381.761 520.54 382.241 520.7 382.611 520.86C382.981 521.01 383.296 521.24 383.556 521.55C383.826 521.86 383.966 522.265 383.976 522.765C383.976 523.215 383.851 523.62 383.601 523.98C383.351 524.34 382.996 524.625 382.536 524.835C382.086 525.035 381.566 525.135 380.976 525.135ZM385.393 520.86C385.393 520.02 385.563 519.285 385.903 518.655C386.243 518.015 386.708 517.52 387.298 517.17C387.898 516.82 388.563 516.645 389.293 516.645C390.013 516.645 390.638 516.8 391.168 517.11C391.698 517.42 392.093 517.81 392.353 518.28V516.78H393.733V525H392.353V523.47C392.083 523.95 391.678 524.35 391.138 524.67C390.608 524.98 389.988 525.135 389.278 525.135C388.548 525.135 387.888 524.955 387.298 524.595C386.708 524.235 386.243 523.73 385.903 523.08C385.563 522.43 385.393 521.69 385.393 520.86ZM392.353 520.875C392.353 520.255 392.228 519.715 391.978 519.255C391.728 518.795 391.388 518.445 390.958 518.205C390.538 517.955 390.073 517.83 389.563 517.83C389.053 517.83 388.588 517.95 388.168 518.19C387.748 518.43 387.413 518.78 387.163 519.24C386.913 519.7 386.788 520.24 386.788 520.86C386.788 521.49 386.913 522.04 387.163 522.51C387.413 522.97 387.748 523.325 388.168 523.575C388.588 523.815 389.053 523.935 389.563 523.935C390.073 523.935 390.538 523.815 390.958 523.575C391.388 523.325 391.728 522.97 391.978 522.51C392.228 522.04 392.353 521.495 392.353 520.875ZM397.405 513.9V525H396.04V513.9H397.405ZM407.231 520.575C407.231 520.835 407.216 521.11 407.186 521.4H400.616C400.666 522.21 400.941 522.845 401.441 523.305C401.951 523.755 402.566 523.98 403.286 523.98C403.876 523.98 404.366 523.845 404.756 523.575C405.156 523.295 405.436 522.925 405.596 522.465H407.066C406.846 523.255 406.406 523.9 405.746 524.4C405.086 524.89 404.266 525.135 403.286 525.135C402.506 525.135 401.806 524.96 401.186 524.61C400.576 524.26 400.096 523.765 399.746 523.125C399.396 522.475 399.221 521.725 399.221 520.875C399.221 520.025 399.391 519.28 399.731 518.64C400.071 518 400.546 517.51 401.156 517.17C401.776 516.82 402.486 516.645 403.286 516.645C404.066 516.645 404.756 516.815 405.356 517.155C405.956 517.495 406.416 517.965 406.736 518.565C407.066 519.155 407.231 519.825 407.231 520.575ZM405.821 520.29C405.821 519.77 405.706 519.325 405.476 518.955C405.246 518.575 404.931 518.29 404.531 518.1C404.141 517.9 403.706 517.8 403.226 517.8C402.536 517.8 401.946 518.02 401.456 518.46C400.976 518.9 400.701 519.51 400.631 520.29H405.821ZM412.447 515.4V514.155H415.267V525H413.887V515.4H412.447ZM417.252 515.4V514.155H420.072V525H418.692V515.4H417.252ZM422.116 516.6C422.116 515.92 422.321 515.38 422.731 514.98C423.141 514.57 423.666 514.365 424.306 514.365C424.946 514.365 425.471 514.57 425.881 514.98C426.291 515.38 426.496 515.92 426.496 516.6C426.496 517.29 426.291 517.84 425.881 518.25C425.471 518.65 424.946 518.85 424.306 518.85C423.666 518.85 423.141 518.65 422.731 518.25C422.321 517.84 422.116 517.29 422.116 516.6ZM430.876 514.53L424.801 525H423.451L429.526 514.53H430.876ZM424.306 515.205C423.966 515.205 423.696 515.325 423.496 515.565C423.306 515.795 423.211 516.14 423.211 516.6C423.211 517.06 423.306 517.41 423.496 517.65C423.696 517.89 423.966 518.01 424.306 518.01C424.646 518.01 424.916 517.89 425.116 517.65C425.316 517.4 425.416 517.05 425.416 516.6C425.416 516.14 425.316 515.795 425.116 515.565C424.916 515.325 424.646 515.205 424.306 515.205ZM427.861 522.93C427.861 522.24 428.066 521.695 428.476 521.295C428.886 520.885 429.411 520.68 430.051 520.68C430.691 520.68 431.211 520.885 431.611 521.295C432.021 521.695 432.226 522.24 432.226 522.93C432.226 523.61 432.021 524.155 431.611 524.565C431.211 524.975 430.691 525.18 430.051 525.18C429.411 525.18 428.886 524.98 428.476 524.58C428.066 524.17 427.861 523.62 427.861 522.93ZM430.036 521.535C429.696 521.535 429.426 521.655 429.226 521.895C429.026 522.125 428.926 522.47 428.926 522.93C428.926 523.38 429.026 523.725 429.226 523.965C429.426 524.195 429.696 524.31 430.036 524.31C430.376 524.31 430.646 524.195 430.846 523.965C431.046 523.725 431.146 523.38 431.146 522.93C431.146 522.47 431.046 522.125 430.846 521.895C430.646 521.655 430.376 521.535 430.036 521.535ZM336.145 542.605C336.145 543.475 335.845 544.2 335.245 544.78C334.655 545.35 333.75 545.635 332.53 545.635H330.52V550H329.155V539.545H332.53C333.71 539.545 334.605 539.83 335.215 540.4C335.835 540.97 336.145 541.705 336.145 542.605ZM332.53 544.51C333.29 544.51 333.85 544.345 334.21 544.015C334.57 543.685 334.75 543.215 334.75 542.605C334.75 541.315 334.01 540.67 332.53 540.67H330.52V544.51H332.53ZM339.207 538.9V550H337.842V538.9H339.207ZM341.023 545.86C341.023 545.02 341.193 544.285 341.533 543.655C341.873 543.015 342.338 542.52 342.928 542.17C343.528 541.82 344.193 541.645 344.923 541.645C345.643 541.645 346.268 541.8 346.798 542.11C347.328 542.42 347.723 542.81 347.983 543.28V541.78H349.363V550H347.983V548.47C347.713 548.95 347.308 549.35 346.768 549.67C346.238 549.98 345.618 550.135 344.908 550.135C344.178 550.135 343.518 549.955 342.928 549.595C342.338 549.235 341.873 548.73 341.533 548.08C341.193 547.43 341.023 546.69 341.023 545.86ZM347.983 545.875C347.983 545.255 347.858 544.715 347.608 544.255C347.358 543.795 347.018 543.445 346.588 543.205C346.168 542.955 345.703 542.83 345.193 542.83C344.683 542.83 344.218 542.95 343.798 543.19C343.378 543.43 343.043 543.78 342.793 544.24C342.543 544.7 342.418 545.24 342.418 545.86C342.418 546.49 342.543 547.04 342.793 547.51C343.043 547.97 343.378 548.325 343.798 548.575C344.218 548.815 344.683 548.935 345.193 548.935C345.703 548.935 346.168 548.815 346.588 548.575C347.018 548.325 347.358 547.97 347.608 547.51C347.858 547.04 347.983 546.495 347.983 545.875ZM358.75 541.78L353.8 553.87H352.39L354.01 549.91L350.695 541.78H352.21L354.79 548.44L357.34 541.78H358.75ZM365.786 542.905V547.75C365.786 548.15 365.871 548.435 366.041 548.605C366.211 548.765 366.506 548.845 366.926 548.845H367.931V550H366.701C365.941 550 365.371 549.825 364.991 549.475C364.611 549.125 364.421 548.55 364.421 547.75V542.905H363.356V541.78H364.421V539.71H365.786V541.78H367.931V542.905H365.786ZM373.17 550.135C372.4 550.135 371.7 549.96 371.07 549.61C370.45 549.26 369.96 548.765 369.6 548.125C369.25 547.475 369.075 546.725 369.075 545.875C369.075 545.035 369.255 544.295 369.615 543.655C369.985 543.005 370.485 542.51 371.115 542.17C371.745 541.82 372.45 541.645 373.23 541.645C374.01 541.645 374.715 541.82 375.345 542.17C375.975 542.51 376.47 543 376.83 543.64C377.2 544.28 377.385 545.025 377.385 545.875C377.385 546.725 377.195 547.475 376.815 548.125C376.445 548.765 375.94 549.26 375.3 549.61C374.66 549.96 373.95 550.135 373.17 550.135ZM373.17 548.935C373.66 548.935 374.12 548.82 374.55 548.59C374.98 548.36 375.325 548.015 375.585 547.555C375.855 547.095 375.99 546.535 375.99 545.875C375.99 545.215 375.86 544.655 375.6 544.195C375.34 543.735 375 543.395 374.58 543.175C374.16 542.945 373.705 542.83 373.215 542.83C372.715 542.83 372.255 542.945 371.835 543.175C371.425 543.395 371.095 543.735 370.845 544.195C370.595 544.655 370.47 545.215 370.47 545.875C370.47 546.545 370.59 547.11 370.83 547.57C371.08 548.03 371.41 548.375 371.82 548.605C372.23 548.825 372.68 548.935 373.17 548.935ZM390.678 545.575C390.678 545.835 390.663 546.11 390.633 546.4H384.063C384.113 547.21 384.388 547.845 384.888 548.305C385.398 548.755 386.013 548.98 386.733 548.98C387.323 548.98 387.813 548.845 388.203 548.575C388.603 548.295 388.883 547.925 389.043 547.465H390.513C390.293 548.255 389.853 548.9 389.193 549.4C388.533 549.89 387.713 550.135 386.733 550.135C385.953 550.135 385.253 549.96 384.633 549.61C384.023 549.26 383.543 548.765 383.193 548.125C382.843 547.475 382.668 546.725 382.668 545.875C382.668 545.025 382.838 544.28 383.178 543.64C383.518 543 383.993 542.51 384.603 542.17C385.223 541.82 385.933 541.645 386.733 541.645C387.513 541.645 388.203 541.815 388.803 542.155C389.403 542.495 389.863 542.965 390.183 543.565C390.513 544.155 390.678 544.825 390.678 545.575ZM389.268 545.29C389.268 544.77 389.153 544.325 388.923 543.955C388.693 543.575 388.378 543.29 387.978 543.1C387.588 542.9 387.153 542.8 386.673 542.8C385.983 542.8 385.393 543.02 384.903 543.46C384.423 543.9 384.148 544.51 384.078 545.29H389.268ZM391.97 545.86C391.97 545.02 392.14 544.285 392.48 543.655C392.82 543.015 393.285 542.52 393.875 542.17C394.475 541.82 395.14 541.645 395.87 541.645C396.59 541.645 397.215 541.8 397.745 542.11C398.275 542.42 398.67 542.81 398.93 543.28V541.78H400.31V550H398.93V548.47C398.66 548.95 398.255 549.35 397.715 549.67C397.185 549.98 396.565 550.135 395.855 550.135C395.125 550.135 394.465 549.955 393.875 549.595C393.285 549.235 392.82 548.73 392.48 548.08C392.14 547.43 391.97 546.69 391.97 545.86ZM398.93 545.875C398.93 545.255 398.805 544.715 398.555 544.255C398.305 543.795 397.965 543.445 397.535 543.205C397.115 542.955 396.65 542.83 396.14 542.83C395.63 542.83 395.165 542.95 394.745 543.19C394.325 543.43 393.99 543.78 393.74 544.24C393.49 544.7 393.365 545.24 393.365 545.86C393.365 546.49 393.49 547.04 393.74 547.51C393.99 547.97 394.325 548.325 394.745 548.575C395.165 548.815 395.63 548.935 396.14 548.935C396.65 548.935 397.115 548.815 397.535 548.575C397.965 548.325 398.305 547.97 398.555 547.51C398.805 547.04 398.93 546.495 398.93 545.875ZM403.982 543.115C404.222 542.645 404.562 542.28 405.002 542.02C405.452 541.76 405.997 541.63 406.637 541.63V543.04H406.277C404.747 543.04 403.982 543.87 403.982 545.53V550H402.617V541.78H403.982V543.115ZM412.218 541.63C413.218 541.63 414.028 541.935 414.648 542.545C415.268 543.145 415.578 544.015 415.578 545.155V550H414.228V545.35C414.228 544.53 414.023 543.905 413.613 543.475C413.203 543.035 412.643 542.815 411.933 542.815C411.213 542.815 410.638 543.04 410.208 543.49C409.788 543.94 409.578 544.595 409.578 545.455V550H408.213V541.78H409.578V542.95C409.848 542.53 410.213 542.205 410.673 541.975C411.143 541.745 411.658 541.63 412.218 541.63ZM421.416 548.905C422.686 547.885 423.681 547.05 424.401 546.4C425.121 545.74 425.726 545.055 426.216 544.345C426.716 543.625 426.966 542.92 426.966 542.23C426.966 541.58 426.806 541.07 426.486 540.7C426.176 540.32 425.671 540.13 424.971 540.13C424.291 540.13 423.761 540.345 423.381 540.775C423.011 541.195 422.811 541.76 422.781 542.47H421.461C421.501 541.35 421.841 540.485 422.481 539.875C423.121 539.265 423.946 538.96 424.956 538.96C425.986 538.96 426.801 539.245 427.401 539.815C428.011 540.385 428.316 541.17 428.316 542.17C428.316 543 428.066 543.81 427.566 544.6C427.076 545.38 426.516 546.07 425.886 546.67C425.256 547.26 424.451 547.95 423.471 548.74H428.631V549.88H421.416V548.905ZM430.209 544.465C430.209 542.745 430.489 541.405 431.049 540.445C431.609 539.475 432.589 538.99 433.989 538.99C435.379 538.99 436.354 539.475 436.914 540.445C437.474 541.405 437.754 542.745 437.754 544.465C437.754 546.215 437.474 547.575 436.914 548.545C436.354 549.515 435.379 550 433.989 550C432.589 550 431.609 549.515 431.049 548.545C430.489 547.575 430.209 546.215 430.209 544.465ZM436.404 544.465C436.404 543.595 436.344 542.86 436.224 542.26C436.114 541.65 435.879 541.16 435.519 540.79C435.169 540.42 434.659 540.235 433.989 540.235C433.309 540.235 432.789 540.42 432.429 540.79C432.079 541.16 431.844 541.65 431.724 542.26C431.614 542.86 431.559 543.595 431.559 544.465C431.559 545.365 431.614 546.12 431.724 546.73C431.844 547.34 432.079 547.83 432.429 548.2C432.789 548.57 433.309 548.755 433.989 548.755C434.659 548.755 435.169 548.57 435.519 548.2C435.879 547.83 436.114 547.34 436.224 546.73C436.344 546.12 436.404 545.365 436.404 544.465ZM439.328 541.6C439.328 540.92 439.533 540.38 439.943 539.98C440.353 539.57 440.878 539.365 441.518 539.365C442.158 539.365 442.683 539.57 443.093 539.98C443.503 540.38 443.708 540.92 443.708 541.6C443.708 542.29 443.503 542.84 443.093 543.25C442.683 543.65 442.158 543.85 441.518 543.85C440.878 543.85 440.353 543.65 439.943 543.25C439.533 542.84 439.328 542.29 439.328 541.6ZM448.088 539.53L442.013 550H440.663L446.738 539.53H448.088ZM441.518 540.205C441.178 540.205 440.908 540.325 440.708 540.565C440.518 540.795 440.423 541.14 440.423 541.6C440.423 542.06 440.518 542.41 440.708 542.65C440.908 542.89 441.178 543.01 441.518 543.01C441.858 543.01 442.128 542.89 442.328 542.65C442.528 542.4 442.628 542.05 442.628 541.6C442.628 541.14 442.528 540.795 442.328 540.565C442.128 540.325 441.858 540.205 441.518 540.205ZM445.073 547.93C445.073 547.24 445.278 546.695 445.688 546.295C446.098 545.885 446.623 545.68 447.263 545.68C447.903 545.68 448.423 545.885 448.823 546.295C449.233 546.695 449.438 547.24 449.438 547.93C449.438 548.61 449.233 549.155 448.823 549.565C448.423 549.975 447.903 550.18 447.263 550.18C446.623 550.18 446.098 549.98 445.688 549.58C445.278 549.17 445.073 548.62 445.073 547.93ZM447.248 546.535C446.908 546.535 446.638 546.655 446.438 546.895C446.238 547.125 446.138 547.47 446.138 547.93C446.138 548.38 446.238 548.725 446.438 548.965C446.638 549.195 446.908 549.31 447.248 549.31C447.588 549.31 447.858 549.195 448.058 548.965C448.258 548.725 448.358 548.38 448.358 547.93C448.358 547.47 448.258 547.125 448.058 546.895C447.858 546.655 447.588 546.535 447.248 546.535ZM336.145 567.605C336.145 568.475 335.845 569.2 335.245 569.78C334.655 570.35 333.75 570.635 332.53 570.635H330.52V575H329.155V564.545H332.53C333.71 564.545 334.605 564.83 335.215 565.4C335.835 565.97 336.145 566.705 336.145 567.605ZM332.53 569.51C333.29 569.51 333.85 569.345 334.21 569.015C334.57 568.685 334.75 568.215 334.75 567.605C334.75 566.315 334.01 565.67 332.53 565.67H330.52V569.51H332.53ZM339.207 565.655V569.15H343.017V570.275H339.207V573.875H343.467V575H337.842V564.53H343.467V565.655H339.207ZM351.967 564.545V565.655H349.117V575H347.752V565.655H344.887V564.545H351.967ZM360.082 564.545V565.655H357.232V575H355.867V565.655H353.002V564.545H360.082ZM366.502 575.105C365.532 575.105 364.647 574.88 363.847 574.43C363.047 573.97 362.412 573.335 361.942 572.525C361.482 571.705 361.252 570.785 361.252 569.765C361.252 568.745 361.482 567.83 361.942 567.02C362.412 566.2 363.047 565.565 363.847 565.115C364.647 564.655 365.532 564.425 366.502 564.425C367.482 564.425 368.372 564.655 369.172 565.115C369.972 565.565 370.602 566.195 371.062 567.005C371.522 567.815 371.752 568.735 371.752 569.765C371.752 570.795 371.522 571.715 371.062 572.525C370.602 573.335 369.972 573.97 369.172 574.43C368.372 574.88 367.482 575.105 366.502 575.105ZM366.502 573.92C367.232 573.92 367.887 573.75 368.467 573.41C369.057 573.07 369.517 572.585 369.847 571.955C370.187 571.325 370.357 570.595 370.357 569.765C370.357 568.925 370.187 568.195 369.847 567.575C369.517 566.945 369.062 566.46 368.482 566.12C367.902 565.78 367.242 565.61 366.502 565.61C365.762 565.61 365.102 565.78 364.522 566.12C363.942 566.46 363.482 566.945 363.142 567.575C362.812 568.195 362.647 568.925 362.647 569.765C362.647 570.595 362.812 571.325 363.142 571.955C363.482 572.585 363.942 573.07 364.522 573.41C365.112 573.75 365.772 573.92 366.502 573.92ZM379.218 567.905V572.75C379.218 573.15 379.303 573.435 379.473 573.605C379.643 573.765 379.938 573.845 380.358 573.845H381.363V575H380.133C379.373 575 378.803 574.825 378.423 574.475C378.043 574.125 377.853 573.55 377.853 572.75V567.905H376.788V566.78H377.853V564.71H379.218V566.78H381.363V567.905H379.218ZM390.517 570.575C390.517 570.835 390.502 571.11 390.472 571.4H383.902C383.952 572.21 384.227 572.845 384.727 573.305C385.237 573.755 385.852 573.98 386.572 573.98C387.162 573.98 387.652 573.845 388.042 573.575C388.442 573.295 388.722 572.925 388.882 572.465H390.352C390.132 573.255 389.692 573.9 389.032 574.4C388.372 574.89 387.552 575.135 386.572 575.135C385.792 575.135 385.092 574.96 384.472 574.61C383.862 574.26 383.382 573.765 383.032 573.125C382.682 572.475 382.507 571.725 382.507 570.875C382.507 570.025 382.677 569.28 383.017 568.64C383.357 568 383.832 567.51 384.442 567.17C385.062 566.82 385.772 566.645 386.572 566.645C387.352 566.645 388.042 566.815 388.642 567.155C389.242 567.495 389.702 567.965 390.022 568.565C390.352 569.155 390.517 569.825 390.517 570.575ZM389.107 570.29C389.107 569.77 388.992 569.325 388.762 568.955C388.532 568.575 388.217 568.29 387.817 568.1C387.427 567.9 386.992 567.8 386.512 567.8C385.822 567.8 385.232 568.02 384.742 568.46C384.262 568.9 383.987 569.51 383.917 570.29H389.107ZM391.809 570.86C391.809 570.02 391.979 569.285 392.319 568.655C392.659 568.015 393.124 567.52 393.714 567.17C394.314 566.82 394.979 566.645 395.709 566.645C396.429 566.645 397.054 566.8 397.584 567.11C398.114 567.42 398.509 567.81 398.769 568.28V566.78H400.149V575H398.769V573.47C398.499 573.95 398.094 574.35 397.554 574.67C397.024 574.98 396.404 575.135 395.694 575.135C394.964 575.135 394.304 574.955 393.714 574.595C393.124 574.235 392.659 573.73 392.319 573.08C391.979 572.43 391.809 571.69 391.809 570.86ZM398.769 570.875C398.769 570.255 398.644 569.715 398.394 569.255C398.144 568.795 397.804 568.445 397.374 568.205C396.954 567.955 396.489 567.83 395.979 567.83C395.469 567.83 395.004 567.95 394.584 568.19C394.164 568.43 393.829 568.78 393.579 569.24C393.329 569.7 393.204 570.24 393.204 570.86C393.204 571.49 393.329 572.04 393.579 572.51C393.829 572.97 394.164 573.325 394.584 573.575C395.004 573.815 395.469 573.935 395.979 573.935C396.489 573.935 396.954 573.815 397.374 573.575C397.804 573.325 398.144 572.97 398.394 572.51C398.644 572.04 398.769 571.495 398.769 570.875ZM412.341 566.63C412.981 566.63 413.551 566.765 414.051 567.035C414.551 567.295 414.946 567.69 415.236 568.22C415.526 568.75 415.671 569.395 415.671 570.155V575H414.321V570.35C414.321 569.53 414.116 568.905 413.706 568.475C413.306 568.035 412.761 567.815 412.071 567.815C411.361 567.815 410.796 568.045 410.376 568.505C409.956 568.955 409.746 569.61 409.746 570.47V575H408.396V570.35C408.396 569.53 408.191 568.905 407.781 568.475C407.381 568.035 406.836 567.815 406.146 567.815C405.436 567.815 404.871 568.045 404.451 568.505C404.031 568.955 403.821 569.61 403.821 570.47V575H402.456V566.78H403.821V567.965C404.091 567.535 404.451 567.205 404.901 566.975C405.361 566.745 405.866 566.63 406.416 566.63C407.106 566.63 407.716 566.785 408.246 567.095C408.776 567.405 409.171 567.86 409.431 568.46C409.661 567.88 410.041 567.43 410.571 567.11C411.101 566.79 411.691 566.63 412.341 566.63ZM421.519 573.905C422.789 572.885 423.784 572.05 424.504 571.4C425.224 570.74 425.829 570.055 426.319 569.345C426.819 568.625 427.069 567.92 427.069 567.23C427.069 566.58 426.909 566.07 426.589 565.7C426.279 565.32 425.774 565.13 425.074 565.13C424.394 565.13 423.864 565.345 423.484 565.775C423.114 566.195 422.914 566.76 422.884 567.47H421.564C421.604 566.35 421.944 565.485 422.584 564.875C423.224 564.265 424.049 563.96 425.059 563.96C426.089 563.96 426.904 564.245 427.504 564.815C428.114 565.385 428.419 566.17 428.419 567.17C428.419 568 428.169 568.81 427.669 569.6C427.179 570.38 426.619 571.07 425.989 571.67C425.359 572.26 424.554 572.95 423.574 573.74H428.734V574.88H421.519V573.905ZM429.952 565.4V564.155H432.772V575H431.392V565.4H429.952ZM434.817 566.6C434.817 565.92 435.022 565.38 435.432 564.98C435.842 564.57 436.367 564.365 437.007 564.365C437.647 564.365 438.172 564.57 438.582 564.98C438.992 565.38 439.197 565.92 439.197 566.6C439.197 567.29 438.992 567.84 438.582 568.25C438.172 568.65 437.647 568.85 437.007 568.85C436.367 568.85 435.842 568.65 435.432 568.25C435.022 567.84 434.817 567.29 434.817 566.6ZM443.577 564.53L437.502 575H436.152L442.227 564.53H443.577ZM437.007 565.205C436.667 565.205 436.397 565.325 436.197 565.565C436.007 565.795 435.912 566.14 435.912 566.6C435.912 567.06 436.007 567.41 436.197 567.65C436.397 567.89 436.667 568.01 437.007 568.01C437.347 568.01 437.617 567.89 437.817 567.65C438.017 567.4 438.117 567.05 438.117 566.6C438.117 566.14 438.017 565.795 437.817 565.565C437.617 565.325 437.347 565.205 437.007 565.205ZM440.562 572.93C440.562 572.24 440.767 571.695 441.177 571.295C441.587 570.885 442.112 570.68 442.752 570.68C443.392 570.68 443.912 570.885 444.312 571.295C444.722 571.695 444.927 572.24 444.927 572.93C444.927 573.61 444.722 574.155 444.312 574.565C443.912 574.975 443.392 575.18 442.752 575.18C442.112 575.18 441.587 574.98 441.177 574.58C440.767 574.17 440.562 573.62 440.562 572.93ZM442.737 571.535C442.397 571.535 442.127 571.655 441.927 571.895C441.727 572.125 441.627 572.47 441.627 572.93C441.627 573.38 441.727 573.725 441.927 573.965C442.127 574.195 442.397 574.31 442.737 574.31C443.077 574.31 443.347 574.195 443.547 573.965C443.747 573.725 443.847 573.38 443.847 572.93C443.847 572.47 443.747 572.125 443.547 571.895C443.347 571.655 443.077 571.535 442.737 571.535ZM332.47 600.105C331.78 600.105 331.16 599.985 330.61 599.745C330.07 599.495 329.645 599.155 329.335 598.725C329.025 598.285 328.865 597.78 328.855 597.21H330.31C330.36 597.7 330.56 598.115 330.91 598.455C331.27 598.785 331.79 598.95 332.47 598.95C333.12 598.95 333.63 598.79 334 598.47C334.38 598.14 334.57 597.72 334.57 597.21C334.57 596.81 334.46 596.485 334.24 596.235C334.02 595.985 333.745 595.795 333.415 595.665C333.085 595.535 332.64 595.395 332.08 595.245C331.39 595.065 330.835 594.885 330.415 594.705C330.005 594.525 329.65 594.245 329.35 593.865C329.06 593.475 328.915 592.955 328.915 592.305C328.915 591.735 329.06 591.23 329.35 590.79C329.64 590.35 330.045 590.01 330.565 589.77C331.095 589.53 331.7 589.41 332.38 589.41C333.36 589.41 334.16 589.655 334.78 590.145C335.41 590.635 335.765 591.285 335.845 592.095H334.345C334.295 591.695 334.085 591.345 333.715 591.045C333.345 590.735 332.855 590.58 332.245 590.58C331.675 590.58 331.21 590.73 330.85 591.03C330.49 591.32 330.31 591.73 330.31 592.26C330.31 592.64 330.415 592.95 330.625 593.19C330.845 593.43 331.11 593.615 331.42 593.745C331.74 593.865 332.185 594.005 332.755 594.165C333.445 594.355 334 594.545 334.42 594.735C334.84 594.915 335.2 595.2 335.5 595.59C335.8 595.97 335.95 596.49 335.95 597.15C335.95 597.66 335.815 598.14 335.545 598.59C335.275 599.04 334.875 599.405 334.345 599.685C333.815 599.965 333.19 600.105 332.47 600.105ZM339.624 592.905V597.75C339.624 598.15 339.709 598.435 339.879 598.605C340.049 598.765 340.344 598.845 340.764 598.845H341.769V600H340.539C339.779 600 339.209 599.825 338.829 599.475C338.449 599.125 338.259 598.55 338.259 597.75V592.905H337.194V591.78H338.259V589.71H339.624V591.78H341.769V592.905H339.624ZM342.913 595.86C342.913 595.02 343.083 594.285 343.423 593.655C343.763 593.015 344.228 592.52 344.818 592.17C345.418 591.82 346.083 591.645 346.813 591.645C347.533 591.645 348.158 591.8 348.688 592.11C349.218 592.42 349.613 592.81 349.873 593.28V591.78H351.253V600H349.873V598.47C349.603 598.95 349.198 599.35 348.658 599.67C348.128 599.98 347.508 600.135 346.798 600.135C346.068 600.135 345.408 599.955 344.818 599.595C344.228 599.235 343.763 598.73 343.423 598.08C343.083 597.43 342.913 596.69 342.913 595.86ZM349.873 595.875C349.873 595.255 349.748 594.715 349.498 594.255C349.248 593.795 348.908 593.445 348.478 593.205C348.058 592.955 347.593 592.83 347.083 592.83C346.573 592.83 346.108 592.95 345.688 593.19C345.268 593.43 344.933 593.78 344.683 594.24C344.433 594.7 344.308 595.24 344.308 595.86C344.308 596.49 344.433 597.04 344.683 597.51C344.933 597.97 345.268 598.325 345.688 598.575C346.108 598.815 346.573 598.935 347.083 598.935C347.593 598.935 348.058 598.815 348.478 598.575C348.908 598.325 349.248 597.97 349.498 597.51C349.748 597.04 349.873 596.495 349.873 595.875ZM358.149 600L354.924 596.37V600H353.559V588.9H354.924V595.425L358.089 591.78H359.994L356.124 595.875L360.009 600H358.149ZM361.984 590.445C361.724 590.445 361.504 590.355 361.324 590.175C361.144 589.995 361.054 589.775 361.054 589.515C361.054 589.255 361.144 589.035 361.324 588.855C361.504 588.675 361.724 588.585 361.984 588.585C362.234 588.585 362.444 588.675 362.614 588.855C362.794 589.035 362.884 589.255 362.884 589.515C362.884 589.775 362.794 589.995 362.614 590.175C362.444 590.355 362.234 590.445 361.984 590.445ZM362.644 591.78V600H361.279V591.78H362.644ZM368.975 591.63C369.975 591.63 370.785 591.935 371.405 592.545C372.025 593.145 372.335 594.015 372.335 595.155V600H370.985V595.35C370.985 594.53 370.78 593.905 370.37 593.475C369.96 593.035 369.4 592.815 368.69 592.815C367.97 592.815 367.395 593.04 366.965 593.49C366.545 593.94 366.335 594.595 366.335 595.455V600H364.97V591.78H366.335V592.95C366.605 592.53 366.97 592.205 367.43 591.975C367.9 591.745 368.415 591.63 368.975 591.63ZM377.955 591.645C378.665 591.645 379.285 591.8 379.815 592.11C380.355 592.42 380.755 592.81 381.015 593.28V591.78H382.395V600.18C382.395 600.93 382.235 601.595 381.915 602.175C381.595 602.765 381.135 603.225 380.535 603.555C379.945 603.885 379.255 604.05 378.465 604.05C377.385 604.05 376.485 603.795 375.765 603.285C375.045 602.775 374.62 602.08 374.49 601.2H375.84C375.99 601.7 376.3 602.1 376.77 602.4C377.24 602.71 377.805 602.865 378.465 602.865C379.215 602.865 379.825 602.63 380.295 602.16C380.775 601.69 381.015 601.03 381.015 600.18V598.455C380.745 598.935 380.345 599.335 379.815 599.655C379.285 599.975 378.665 600.135 377.955 600.135C377.225 600.135 376.56 599.955 375.96 599.595C375.37 599.235 374.905 598.73 374.565 598.08C374.225 597.43 374.055 596.69 374.055 595.86C374.055 595.02 374.225 594.285 374.565 593.655C374.905 593.015 375.37 592.52 375.96 592.17C376.56 591.82 377.225 591.645 377.955 591.645ZM381.015 595.875C381.015 595.255 380.89 594.715 380.64 594.255C380.39 593.795 380.05 593.445 379.62 593.205C379.2 592.955 378.735 592.83 378.225 592.83C377.715 592.83 377.25 592.95 376.83 593.19C376.41 593.43 376.075 593.78 375.825 594.24C375.575 594.7 375.45 595.24 375.45 595.86C375.45 596.49 375.575 597.04 375.825 597.51C376.075 597.97 376.41 598.325 376.83 598.575C377.25 598.815 377.715 598.935 378.225 598.935C378.735 598.935 379.2 598.815 379.62 598.575C380.05 598.325 380.39 597.97 380.64 597.51C380.89 597.04 381.015 596.495 381.015 595.875ZM390.066 593.115C390.306 592.645 390.646 592.28 391.086 592.02C391.536 591.76 392.081 591.63 392.721 591.63V593.04H392.361C390.831 593.04 390.066 593.87 390.066 595.53V600H388.701V591.78H390.066V593.115ZM401.797 595.575C401.797 595.835 401.782 596.11 401.752 596.4H395.182C395.232 597.21 395.507 597.845 396.007 598.305C396.517 598.755 397.132 598.98 397.852 598.98C398.442 598.98 398.932 598.845 399.322 598.575C399.722 598.295 400.002 597.925 400.162 597.465H401.632C401.412 598.255 400.972 598.9 400.312 599.4C399.652 599.89 398.832 600.135 397.852 600.135C397.072 600.135 396.372 599.96 395.752 599.61C395.142 599.26 394.662 598.765 394.312 598.125C393.962 597.475 393.787 596.725 393.787 595.875C393.787 595.025 393.957 594.28 394.297 593.64C394.637 593 395.112 592.51 395.722 592.17C396.342 591.82 397.052 591.645 397.852 591.645C398.632 591.645 399.322 591.815 399.922 592.155C400.522 592.495 400.982 592.965 401.302 593.565C401.632 594.155 401.797 594.825 401.797 595.575ZM400.387 595.29C400.387 594.77 400.272 594.325 400.042 593.955C399.812 593.575 399.497 593.29 399.097 593.1C398.707 592.9 398.272 592.8 397.792 592.8C397.102 592.8 396.512 593.02 396.022 593.46C395.542 593.9 395.267 594.51 395.197 595.29H400.387ZM414.548 591.78L411.983 600H410.573L408.593 593.475L406.613 600H405.203L402.623 591.78H404.018L405.908 598.68L407.948 591.78H409.343L411.338 598.695L413.198 591.78H414.548ZM415.393 595.86C415.393 595.02 415.563 594.285 415.903 593.655C416.243 593.015 416.708 592.52 417.298 592.17C417.898 591.82 418.563 591.645 419.293 591.645C420.013 591.645 420.638 591.8 421.168 592.11C421.698 592.42 422.093 592.81 422.353 593.28V591.78H423.733V600H422.353V598.47C422.083 598.95 421.678 599.35 421.138 599.67C420.608 599.98 419.988 600.135 419.278 600.135C418.548 600.135 417.888 599.955 417.298 599.595C416.708 599.235 416.243 598.73 415.903 598.08C415.563 597.43 415.393 596.69 415.393 595.86ZM422.353 595.875C422.353 595.255 422.228 594.715 421.978 594.255C421.728 593.795 421.388 593.445 420.958 593.205C420.538 592.955 420.073 592.83 419.563 592.83C419.053 592.83 418.588 592.95 418.168 593.19C417.748 593.43 417.413 593.78 417.163 594.24C416.913 594.7 416.788 595.24 416.788 595.86C416.788 596.49 416.913 597.04 417.163 597.51C417.413 597.97 417.748 598.325 418.168 598.575C418.588 598.815 419.053 598.935 419.563 598.935C420.073 598.935 420.538 598.815 420.958 598.575C421.388 598.325 421.728 597.97 421.978 597.51C422.228 597.04 422.353 596.495 422.353 595.875ZM427.405 593.115C427.645 592.645 427.985 592.28 428.425 592.02C428.875 591.76 429.42 591.63 430.06 591.63V593.04H429.7C428.17 593.04 427.405 593.87 427.405 595.53V600H426.04V591.78H427.405V593.115ZM431.125 595.86C431.125 595.02 431.295 594.285 431.635 593.655C431.975 593.015 432.44 592.52 433.03 592.17C433.63 591.82 434.3 591.645 435.04 591.645C435.68 591.645 436.275 591.795 436.825 592.095C437.375 592.385 437.795 592.77 438.085 593.25V588.9H439.465V600H438.085V598.455C437.815 598.945 437.415 599.35 436.885 599.67C436.355 599.98 435.735 600.135 435.025 600.135C434.295 600.135 433.63 599.955 433.03 599.595C432.44 599.235 431.975 598.73 431.635 598.08C431.295 597.43 431.125 596.69 431.125 595.86ZM438.085 595.875C438.085 595.255 437.96 594.715 437.71 594.255C437.46 593.795 437.12 593.445 436.69 593.205C436.27 592.955 435.805 592.83 435.295 592.83C434.785 592.83 434.32 592.95 433.9 593.19C433.48 593.43 433.145 593.78 432.895 594.24C432.645 594.7 432.52 595.24 432.52 595.86C432.52 596.49 432.645 597.04 432.895 597.51C433.145 597.97 433.48 598.325 433.9 598.575C434.32 598.815 434.785 598.935 435.295 598.935C435.805 598.935 436.27 598.815 436.69 598.575C437.12 598.325 437.46 597.97 437.71 597.51C437.96 597.04 438.085 596.495 438.085 595.875ZM444.682 600.135C444.052 600.135 443.487 600.03 442.987 599.82C442.487 599.6 442.092 599.3 441.802 598.92C441.512 598.53 441.352 598.085 441.322 597.585H442.732C442.772 597.995 442.962 598.33 443.302 598.59C443.652 598.85 444.107 598.98 444.667 598.98C445.187 598.98 445.597 598.865 445.897 598.635C446.197 598.405 446.347 598.115 446.347 597.765C446.347 597.405 446.187 597.14 445.867 596.97C445.547 596.79 445.052 596.615 444.382 596.445C443.772 596.285 443.272 596.125 442.882 595.965C442.502 595.795 442.172 595.55 441.892 595.23C441.622 594.9 441.487 594.47 441.487 593.94C441.487 593.52 441.612 593.135 441.862 592.785C442.112 592.435 442.467 592.16 442.927 591.96C443.387 591.75 443.912 591.645 444.502 591.645C445.412 591.645 446.147 591.875 446.707 592.335C447.267 592.795 447.567 593.425 447.607 594.225H446.242C446.212 593.795 446.037 593.45 445.717 593.19C445.407 592.93 444.987 592.8 444.457 592.8C443.967 592.8 443.577 592.905 443.287 593.115C442.997 593.325 442.852 593.6 442.852 593.94C442.852 594.21 442.937 594.435 443.107 594.615C443.287 594.785 443.507 594.925 443.767 595.035C444.037 595.135 444.407 595.25 444.877 595.38C445.467 595.54 445.947 595.7 446.317 595.86C446.687 596.01 447.002 596.24 447.262 596.55C447.532 596.86 447.672 597.265 447.682 597.765C447.682 598.215 447.557 598.62 447.307 598.98C447.057 599.34 446.702 599.625 446.242 599.835C445.792 600.035 445.272 600.135 444.682 600.135ZM453.218 598.905C454.488 597.885 455.483 597.05 456.203 596.4C456.923 595.74 457.528 595.055 458.018 594.345C458.518 593.625 458.768 592.92 458.768 592.23C458.768 591.58 458.608 591.07 458.288 590.7C457.978 590.32 457.473 590.13 456.773 590.13C456.093 590.13 455.563 590.345 455.183 590.775C454.813 591.195 454.613 591.76 454.583 592.47H453.263C453.303 591.35 453.643 590.485 454.283 589.875C454.923 589.265 455.748 588.96 456.758 588.96C457.788 588.96 458.603 589.245 459.203 589.815C459.813 590.385 460.118 591.17 460.118 592.17C460.118 593 459.868 593.81 459.368 594.6C458.878 595.38 458.318 596.07 457.688 596.67C457.058 597.26 456.253 597.95 455.273 598.74H460.433V599.88H453.218V598.905ZM463.766 597.09C463.866 597.66 464.096 598.1 464.456 598.41C464.826 598.72 465.321 598.875 465.941 598.875C466.771 598.875 467.381 598.55 467.771 597.9C468.171 597.25 468.361 596.155 468.341 594.615C468.131 595.065 467.781 595.42 467.291 595.68C466.801 595.93 466.256 596.055 465.656 596.055C464.986 596.055 464.386 595.92 463.856 595.65C463.336 595.37 462.926 594.965 462.626 594.435C462.326 593.905 462.176 593.265 462.176 592.515C462.176 591.445 462.486 590.585 463.106 589.935C463.726 589.275 464.606 588.945 465.746 588.945C467.146 588.945 468.126 589.4 468.686 590.31C469.256 591.22 469.541 592.575 469.541 594.375C469.541 595.635 469.426 596.675 469.196 597.495C468.976 598.315 468.596 598.94 468.056 599.37C467.526 599.8 466.796 600.015 465.866 600.015C464.846 600.015 464.051 599.74 463.481 599.19C462.911 598.64 462.586 597.94 462.506 597.09H463.766ZM465.881 594.9C466.551 594.9 467.101 594.695 467.531 594.285C467.961 593.865 468.176 593.3 468.176 592.59C468.176 591.84 467.966 591.235 467.546 590.775C467.126 590.315 466.536 590.085 465.776 590.085C465.076 590.085 464.516 590.305 464.096 590.745C463.686 591.185 463.481 591.765 463.481 592.485C463.481 593.215 463.686 593.8 464.096 594.24C464.506 594.68 465.101 594.9 465.881 594.9ZM471.159 591.6C471.159 590.92 471.364 590.38 471.774 589.98C472.184 589.57 472.709 589.365 473.349 589.365C473.989 589.365 474.514 589.57 474.924 589.98C475.334 590.38 475.539 590.92 475.539 591.6C475.539 592.29 475.334 592.84 474.924 593.25C474.514 593.65 473.989 593.85 473.349 593.85C472.709 593.85 472.184 593.65 471.774 593.25C471.364 592.84 471.159 592.29 471.159 591.6ZM479.919 589.53L473.844 600H472.494L478.569 589.53H479.919ZM473.349 590.205C473.009 590.205 472.739 590.325 472.539 590.565C472.349 590.795 472.254 591.14 472.254 591.6C472.254 592.06 472.349 592.41 472.539 592.65C472.739 592.89 473.009 593.01 473.349 593.01C473.689 593.01 473.959 592.89 474.159 592.65C474.359 592.4 474.459 592.05 474.459 591.6C474.459 591.14 474.359 590.795 474.159 590.565C473.959 590.325 473.689 590.205 473.349 590.205ZM476.904 597.93C476.904 597.24 477.109 596.695 477.519 596.295C477.929 595.885 478.454 595.68 479.094 595.68C479.734 595.68 480.254 595.885 480.654 596.295C481.064 596.695 481.269 597.24 481.269 597.93C481.269 598.61 481.064 599.155 480.654 599.565C480.254 599.975 479.734 600.18 479.094 600.18C478.454 600.18 477.929 599.98 477.519 599.58C477.109 599.17 476.904 598.62 476.904 597.93ZM479.079 596.535C478.739 596.535 478.469 596.655 478.269 596.895C478.069 597.125 477.969 597.47 477.969 597.93C477.969 598.38 478.069 598.725 478.269 598.965C478.469 599.195 478.739 599.31 479.079 599.31C479.419 599.31 479.689 599.195 479.889 598.965C480.089 598.725 480.189 598.38 480.189 597.93C480.189 597.47 480.089 597.125 479.889 596.895C479.689 596.655 479.419 596.535 479.079 596.535Z" fill="white"/>
</svg>
