<svg width="19" height="17" viewBox="0 0 19 17" fill="none" xmlns="http://www.w3.org/2000/svg">
<path d="M17.9969 7.33604C17.4166 5.48993 17.0437 4.63514 16.873 4.28983L16.873 4.28972C16.7357 4.00705 16.3879 3.39878 16.3741 3.37461C16.3254 3.31514 15.1176 1.86982 12.2067 0.800781L11.8221 1.84803C13.1984 2.3535 14.1405 2.93723 14.7241 3.3761C13.1122 2.89543 11.1955 2.60126 9.4979 2.60126C7.79828 2.60126 5.87928 2.89628 4.26616 3.37799C4.80644 2.97713 5.78891 2.35663 7.17372 1.84803L6.78907 0.800781C3.8782 1.86982 2.67041 3.31514 2.62169 3.37461C2.62169 3.37461 2.33478 3.83776 2.09371 4.34633C1.94923 4.65113 1.57496 5.34709 0.995295 7.34809C0.268283 9.85836 0.0100783 13.4065 0 13.5485C0.12834 13.8292 1.61591 16.1968 5.61888 16.1968L6.71577 14.6085C7.62115 14.8433 8.55515 14.9621 9.49797 14.9621C10.4428 14.9621 11.3787 14.8428 12.2857 14.607L13.3759 16.1968C17.4585 16.1968 18.7911 13.9098 19 13.5421C18.9839 13.3731 18.5795 9.19011 17.9969 7.33604V7.33604ZM16.9284 14.0982C16.0793 14.6992 15.0816 15.0272 13.9595 15.075L13.3967 14.2543C14.1729 13.9618 14.9176 13.5812 15.6173 13.1154L14.9991 12.1867C14.2186 12.7063 13.3759 13.1083 12.4938 13.3866V13.3877C12.4938 13.3877 11.0331 13.8465 9.49801 13.8465C7.96288 13.8465 6.50632 13.3891 6.50632 13.3891V13.3879C5.62275 13.1095 4.77863 12.7071 3.99687 12.1867L3.37864 13.1154C4.07966 13.582 4.82575 13.9631 5.60341 14.2558L5.03765 15.075C3.91502 15.0274 2.91697 14.6994 2.06753 14.0982C1.59397 13.763 1.28887 13.4232 1.14223 13.2402C1.20694 12.4761 1.47173 9.71369 2.06709 7.65847C2.51392 6.11605 2.82236 5.39424 2.99076 5.04574C2.99076 5.04574 7.30876 3.7169 9.49801 3.7169C11.6855 3.7169 14.3544 4.26034 15.9906 5.03883C16.1676 5.44188 16.4825 6.23851 16.9325 7.67052C17.4073 9.18126 17.7615 12.3916 17.8498 13.2451C17.701 13.4299 17.3973 13.7663 16.9284 14.0982V14.0982Z" fill="white"/>
<path d="M5.80261 8.4082H6.91829V10.2677H5.80261V8.4082Z" fill="white"/>
<path d="M12.0773 8.4082H13.1929V10.2677H12.0773V8.4082Z" fill="white"/>
</svg>
